<svg xmlns="http://www.w3.org/2000/svg" viewBox="0 0 24 24" width="24" height="24">
  <defs>
    <linearGradient id="gradient" x1="0%" y1="0%" x2="100%" y2="100%">
      <stop offset="0%" stop-color="#2196f3" />
      <stop offset="100%" stop-color="#1565c0" />
    </linearGradient>
  </defs>
  <path fill="url(#gradient)" d="M12 2L2 6v6c0 5.55 3.84 10.74 9 12 5.16-1.26 9-6.45 9-12V6l-10-4zm0 2.26L20 8v4c0 4.52-3.13 8.65-8 9.75-4.87-1.1-8-5.23-8-9.75V8l8-3.74zM12 15c1.66 0 3-1.34 3-3s-1.34-3-3-3-3 1.34-3 3 1.34 3 3 3zm0-4c.55 0 1 .45 1 1s-.45 1-1 1-1-.45-1-1 .45-1 1-1z"/>
  <path fill="#ff5252" d="M15.5 9.5L8.5 16.5" stroke="#ff5252" stroke-width="1.5" stroke-linecap="round" />
</svg>